name Run_300 02_newCOP3_v24.mot
datacolumns 19
datarows 50
range 1.495 1.544
DataType=double
version=3
OpenSimVersion=4.3-2021-08-27-4bc7ad9
endheader
time	R_ground_force_vx	R_ground_force_vy	R_ground_force_vz	R_ground_force_px	R_ground_force_py	R_ground_force_pz	L_ground_force_vx	L_ground_force_vy	L_ground_force_vz	L_ground_force_px	L_ground_force_py	L_ground_force_pz	R_ground_torque_x	R_ground_torque_y	R_ground_torque_z	L_ground_torque_x	L_ground_torque_y	L_ground_torque_z
1.495	0	0	0	0	0	0	0	0	0	0	0	0	0	0	0	0	0	0
1.496	0	0	0	0	0	0	0	0	0	0	0	0	0	0	0	0	0	0
1.497	0	0	0	0	0	0	0	0	0	0	0	0	0	0	0	0	0	0
1.498	0	0	0	0	0	0	0	0	0	0	0	0	0	0	0	0	0	0
1.499	0	0	0	0	0	0	0	0	0	0	0	0	0	0	0	0	0	0
1.5	0	0	0	0	0	0	0	0	0	0	0	0	0	0	0	0	0	0
1.501	0	0	0	0	0	0	0	0	0	0	0	0	0	0	0	0	0	0
1.502	0	0	0	0	0	0	0	0	0	0	0	0	0	0	0	0	0	0
1.503	0	0	0	0	0	0	0	0	0	0	0	0	0	0	0	0	0	0
1.504	0	0	0	0	0	0	0	0	0	0	0	0	0	0	0	0	0	0
1.505	0	0	0	0	0	0	0	0	0	0	0	0	0	0	0	0	0	0
1.506	0	0	0	0	0	0	0	0	0	0	0	0	0	0	0	0	0	0
1.507	0	0	0	0	0	0	0	0	0	0	0	0	0	0	0	0	0	0
1.508	0	0	0	0	0	0	0.935172	51.062016	-2.802592	1.872248	0	0.043999	0	0	0	-0	0.198129	-0
1.509	0	0	0	0	0	0	1.662455	57.931511	-3.17371	0.7555730000000001	0	-0.474282	0	0	0	-0	0.138163	-0
1.51	0	0	0	0	0	0	2.492609	65.603989	-3.592222	0.932712	0	-0.39134	0	0	0	-0	0.08451400000000001	-0
1.511	0	0	0	0	0	0	3.431102	74.140511	-4.063658	0.979472	0	-0.369029	0	0	0	-0	0.037609	-0
1.512	0	0	0	0	0	0	4.481899	83.60172300000001	-4.593288	1.000882	0	-0.358536	0	0	0	0	-0.002211	0
1.513	0	0	0	0	0	0	5.647031	94.046944	-5.185882	1.013061	0	-0.352367	0	0	0	0	-0.034686	0
1.514	0	0	0	0	0	0	6.926157	105.533051	-5.845446	1.020861	0	-0.348262	0	0	0	0	-0.059647	0
1.515	0	0	0	0	0	0	8.316134999999999	118.113403	-6.574929	1.026248	0	-0.345307	0	0	0	0	-0.077005	0
1.516	0	0	0	0	0	0	9.810636000000001	131.836517	-7.375931	1.030168	0	-0.34306	0	0	0	0	-0.086756	0
1.517	0	0	0	0	0	0	11.39979	146.744736	-8.248397000000001	1.033132	0	-0.34128	0	0	0	0	-0.088975	0
1.518	0	0	0	0	0	0	13.069933	162.872833	-9.190332	1.03544	0	-0.339826	0	0	0	0	-0.083813	0
1.519	0	0	0	0	0	0	14.803435	180.246521	-10.197535	1.037281	0	-0.33861	0	0	0	0	-0.071496	0
1.52	0	0	0	0	0	0	16.57865	198.88092	-11.263381	1.038777	0	-0.337573	0	0	0	0	-0.052316	0
1.521	0	0	0	0	0	0	18.369989	218.779236	-12.378664	1.040011	0	-0.336676	0	0	0	0	-0.026631	0
1.522	0	0	0	0	0	0	20.148157	239.931244	-13.531516	1.041044	0	-0.335888	0	0	0	-0	0.005145	-0
1.523	0	0	0	0	0	0	21.880505	262.312073	-14.707421	1.041917	0	-0.335191	0	0	0	-0	0.042543	-0
1.524	0	0	0	0	0	0	23.531551	285.881165	-15.88934	1.042662	0	-0.334568	0	0	0	-0	0.085046	-0
1.525	0	0	0	0	0	0	25.063633	310.58136	-17.057957	1.043304	0	-0.334007	0	0	0	-0	0.132098	-0
1.526	0	0	0	0	0	0	26.437668	336.338379	-18.192045	1.04386	0	-0.333501	0	0	0	-0	0.183105	-0
1.527	0	0	0	0	0	0	27.614029	363.060669	-19.26898	1.044345	0	-0.33304	0	0	0	-0	0.237447	-0
1.528	0	0	0	0	0	0	28.553484	390.639557	-20.26536	1.044769	0	-0.332621	0	0	0	-0	0.294478	-0
1.529	0	0	0	0	0	0	29.218164	418.94989	-21.157759	1.045143	0	-0.332238	0	0	0	-0	0.353536	-0
1.53	0	0	0	0	0	0	29.572556	447.851227	-21.923557	1.045472	0	-0.331889	0	0	0	-0	0.413952	-0
1.531	0	0	0	0	0	0	29.584435	477.189362	-22.541855	1.045763	0	-0.331569	0	0	0	-0	0.475048	-0
1.532	0	0	0	0	0	0	29.225733	506.798279	-22.994415	1.04602	0	-0.331277	0	0	0	-0	0.536152	-0
1.533	0	0	0	0	0	0	28.473303	536.502808	-23.266602	1.046247	0	-0.331012	0	0	0	-0	0.5966	-0
1.534	0	0	0	0	0	0	27.309515	566.121155	-23.348263	1.046448	0	-0.330771	0	0	0	-0	0.655742	-0
1.535	0	0	0	0	0	0	25.7227	595.468201	-23.234505	1.046624	0	-0.330554	0	0	0	-0	0.712948	-0
1.536	0	0	0	0	0	0	23.707397	624.358704	-22.926338	1.046777	0	-0.330359	0	0	0	-0	0.767616	-0
1.537	0	0	0	0	0	0	21.264399	652.610229	-22.431093	1.04691	0	-0.330186	0	0	0	-0	0.819175	-0
1.538	0	0	0	0	0	0	18.400602	680.047058	-21.762629	1.047023	0	-0.330034	0	0	0	-0	0.867089	-0
1.539	0	0	0	0	0	0	15.128694	706.50238	-20.94125	1.047118	0	-0.329903	0	0	0	-0	0.910867	-0
1.54	0	0	0	0	0	0	11.466661	731.82196	-19.993362	1.047194	0	-0.329792	0	0	0	-0	0.950062	-0
1.541	0	0	0	0	0	0	7.437197	755.865662	-18.950827	1.047253	0	-0.329702	0	0	0	-0	0.984276	-0
1.542	0	0	0	0	0	0	3.067007	778.510193	-17.850048	1.047294	0	-0.329633	0	0	0	-0	1.013168	-0
1.543	0	0	0	0	0	0	-1.613922	799.6501459999999	-16.730825	1.047318	0	-0.329583	0	0	0	-0	1.03645	-0
1.544	0	0	0	0	0	0	-6.573072	819.199402	-15.63501	1.047323	0	-0.329554	0	0	0	-0	1.053897	-0
